# xmcd
#
# Track frame offsets:
#	192
#	17200
#	36825
#	59122
#	90375
#	104742
#	121580
#	136847
#	157600
#
# Disc length: 2442 seconds
#
# Revision: 2
# Processed by: cddbd v1.5.2PL0 Copyright (c) Steve Scherf et al.
# Submitted via: EZCDAudioConverter 2.2.0.1
#
DISCID=6c098809
DTITLE=Various Artist - Black Top Blues-A-Rama, Volume 1
DYEAR=1900
DGENRE=blues
TTITLE0=Anson Funderburgh and Sam Myers - Pawnbroker
TTITLE1=Anson Funderburgh and Sam Myers - That's Alright
TTITLE2=Anson Funderburgh and Sam Myers - Suggestion Blues
TTITLE3=Anson Funderburgh and Sam Myers - Changin' Neighborhoods
TTITLE4=Ron Levy - I'm Your Professor
TTITLE5=Ron Levy - It's Hot in Here
TTITLE6=Ron Levy - Big Mamou
TTITLE7=Grady Gaines - Hard Time Blues
TTITLE8=Grady Gaines - Something On Your Mind
EXTD=
EXTT0=
EXTT1=
EXTT2=
EXTT3=
EXTT4=
EXTT5=
EXTT6=
EXTT7=
EXTT8=
PLAYORDER=
